<svg xmlns="http://www.w3.org/2000/svg" id="3" viewBox="0 0 24 24"><g fill="none" fill-rule="evenodd" stroke-linecap="round" stroke-linejoin="round" class="24--bug--filled"><g stroke="#282D37" style="stroke-width: var(--stroke-width, 2)" stroke-width="2" class="icon" transform="translate(2 2)" vector-effect="non-scaling-stroke"><path d="m0 13.942 1.058-1.154h3.365m.673 4.423H1.058L0 18.365m20-4.423-1.058-1.154h-3.365M4.423 8.365H1.058L0 9.519m20 0-1.058-1.154h-3.365m4.423 10-1.058-1.154h-4.038M4.519 0c.192 1.346 1.058 2.5 2.5 3.558m5.962 0c1.538-.962 2.308-2.212 2.5-3.558" class="stroke"/><path fill="#282D37" fill-rule="nonzero" d="M10 2.788c-3.077 0-5.577 2.404-5.577 5.481v6.154C4.423 17.5 6.923 20 10 20s5.577-2.5 5.577-5.577V8.365c0-3.077-2.5-5.577-5.577-5.577h0ZM7.786 6.442h4.423a1.923 1.923 0 0 1 0 3.846H7.786a1.923 1.923 0 0 1 0-3.846Zm3.367 11.539H8.845a1.923 1.923 0 0 1 0-3.846h2.308a1.923 1.923 0 0 1 0 3.846Zm1.058-3.846H7.788a1.923 1.923 0 0 1 0-3.846h4.423a1.923 1.923 0 0 1 0 3.846h0Z" class="fill"/></g></g></svg>