<?xml version="1.0" encoding="UTF-8"?>
<svg id="filled" xmlns="http://www.w3.org/2000/svg" viewBox="0 0 24 24">
  <defs>
    <style>
      .cls-1 {
        fill: #282d37;
      }

      .cls-1, .cls-2 {
        stroke: #282d37;
        stroke-linecap: round;
        stroke-linejoin: round;
        stroke-width: 2px;
      }

      .cls-2 {
        fill: none;
      }
    </style>
  </defs>
  <path id="stroke" class="cls-2" d="M2,15.942l1.058-1.154h3.365m.673,4.423H3.058l-1.058,1.154m20-4.423l-1.058-1.154h-3.365M6.423,10.365H3.058l-1.058,1.154m20,0l-1.058-1.154h-3.365m4.423,10l-1.058-1.154h-4.038M6.519,2c.192,1.346,1.058,2.5,2.5,3.558m5.962,0c1.538-.962,2.308-2.212,2.5-3.558"/>
  <path id="fill" class="cls-1" d="M12,4.788c-3.077,0-5.577,2.404-5.577,5.481v6.154c0,3.077,2.5,5.577,5.577,5.577s5.577-2.5,5.577-5.577v-6.058c0-3.077-2.5-5.577-5.577-5.577Zm-2.214,3.654h4.423c1.062,0,1.923,.861,1.923,1.923s-.861,1.923-1.923,1.923h-4.423c-1.062,0-1.923-.861-1.923-1.923s.861-1.923,1.923-1.923Zm3.367,11.539h-2.308c-1.062,0-1.923-.861-1.923-1.923s.861-1.923,1.923-1.923h2.308c1.062,0,1.923,.861,1.923,1.923s-.861,1.923-1.923,1.923Zm1.058-3.846h-4.423c-1.062,0-1.923-.861-1.923-1.923s.861-1.923,1.923-1.923h4.423c1.062,0,1.923,.861,1.923,1.923s-.861,1.923-1.923,1.923Z"/>
</svg>