<svg viewBox="0 0 24 24" xmlns="http://www.w3.org/2000/svg"><g stroke="#282d37" stroke-linecap="round" stroke-linejoin="round" style="stroke-width: var(--stroke-width, 2)" stroke-width="2" vector-effect="non-scaling-stroke"><path d="m2 15.942 1.058-1.154h3.365m.673 4.423h-4.038l-1.058 1.154m20-4.423-1.058-1.154h-3.365m-11.154-4.423h-3.365l-1.058 1.154m20 0-1.058-1.154h-3.365m4.423 10-1.058-1.154h-4.038m-10.385-17.211c.192 1.346 1.058 2.5 2.5 3.558m5.962 0c1.538-.962 2.308-2.212 2.5-3.558" fill="none"/><path d="m12 4.788c-3.077 0-5.577 2.404-5.577 5.481v6.154c0 3.077 2.5 5.577 5.577 5.577s5.577-2.5 5.577-5.577v-6.058c0-3.077-2.5-5.577-5.577-5.577zm-2.214 3.654h4.423c1.062 0 1.923.861 1.923 1.923s-.861 1.923-1.923 1.923h-4.423c-1.062 0-1.923-.861-1.923-1.923s.861-1.923 1.923-1.923zm3.367 11.539h-2.308c-1.062 0-1.923-.861-1.923-1.923s.861-1.923 1.923-1.923h2.308c1.062 0 1.923.861 1.923 1.923s-.861 1.923-1.923 1.923zm1.058-3.846h-4.423c-1.062 0-1.923-.861-1.923-1.923s.861-1.923 1.923-1.923h4.423c1.062 0 1.923.861 1.923 1.923s-.861 1.923-1.923 1.923z" fill="#282d37"/></g></svg>