<svg viewBox="0 0 24 24" xmlns="http://www.w3.org/2000/svg"><path d="M13.656 3.656 C 13.535 3.777,13.520 3.816,13.520 4.005 L 13.520 4.219 17.140 7.840 C 19.131 9.831,20.760 11.474,20.760 11.490 C 20.760 11.507,16.492 11.520,11.276 11.520 L 1.792 11.520 1.656 11.656 C 1.536 11.776,1.520 11.817,1.520 12.000 C 1.520 12.183,1.536 12.224,1.656 12.344 L 1.792 12.480 11.276 12.480 C 16.492 12.480,20.760 12.493,20.760 12.510 C 20.760 12.526,19.131 14.169,17.140 16.160 L 13.520 19.781 13.520 19.995 C 13.520 20.184,13.535 20.223,13.656 20.344 C 13.777 20.465,13.816 20.480,14.006 20.480 L 14.220 20.480 18.350 16.350 L 22.480 12.220 22.480 12.000 L 22.480 11.780 18.350 7.650 L 14.220 3.520 14.006 3.520 C 13.816 3.520,13.777 3.535,13.656 3.656 " fill="black" stroke="none" fill-rule="evenodd"></path></svg>