<svg viewBox="0 0 24 24" xmlns="http://www.w3.org/2000/svg"><g style="stroke:#282d37;stroke-width:2;fill:none;fill-rule:evenodd;stroke-linecap:round;stroke-linejoin:round" transform="translate(2 2)"><path d="m0 13.942 1.058-1.154h3.365m.673 4.423h-4.038l-1.058 1.154m20-4.423-1.058-1.154h-3.365m-11.154-4.423h-3.365l-1.058 1.154m20 0-1.058-1.154h-3.365m4.423 10-1.058-1.154h-4.038m-10.385-17.211c.192 1.346 1.058 2.5 2.5 3.558m5.962 0c1.538-.962 2.308-2.212 2.5-3.558"/><path d="m10 2.788c-3.077 0-5.577 2.404-5.577 5.481v6.154c0 3.077 2.5 5.577 5.577 5.577s5.577-2.5 5.577-5.577v-6.058c0-3.077-2.5-5.577-5.577-5.577zm-2.214 3.654h4.423a1.923 1.923 0 0 1 0 3.846h-4.423a1.923 1.923 0 0 1 0-3.846zm3.367 11.539h-2.308a1.923 1.923 0 0 1 0-3.846h2.308a1.923 1.923 0 0 1 0 3.846zm1.058-3.846h-4.423a1.923 1.923 0 0 1 0-3.846h4.423a1.923 1.923 0 0 1 0 3.846z" fill="#282d37" fill-rule="nonzero"/></g></svg>