<svg xmlns="http://www.w3.org/2000/svg" id="3" viewBox="0 0 24 24"><g fill="none" fill-rule="evenodd" stroke-linecap="round" stroke-linejoin="round" class="24--bug--outlined"><g stroke="#282D37" stroke-width="2" class="icon" transform="translate(2 2)"><path d="M7.788 12.212h4.423M7.788 8.365h4.423m-3.365 7.693h2.308m-6.731-3.27H1.058L0 13.942m5.096 3.269H1.058L0 18.365m20-4.423-1.058-1.154h-3.365M4.423 8.365H1.058L0 9.519m20 0-1.058-1.154h-3.365m4.423 10-1.058-1.154h-4.038m.673-8.846c0-3.077-2.5-5.577-5.577-5.577S4.423 5.192 4.423 8.269v6.154C4.423 17.5 6.923 20 10 20s5.577-2.5 5.577-5.577V8.365ZM4.519 0c.192 1.346 1.058 2.5 2.5 3.558m5.962 0c1.538-.962 2.308-2.212 2.5-3.558" class="stroke"/></g></g></svg>