<svg viewBox="0 0 24 24" xmlns="http://www.w3.org/2000/svg"><path d="M6.176 1.656 C 6.058 1.774,6.040 1.818,6.040 1.990 C 6.040 2.412,6.316 3.222,6.645 3.765 C 6.994 4.342,7.358 4.776,7.959 5.333 L 8.202 5.557 7.708 6.049 C 6.733 7.018,6.195 8.075,6.002 9.400 L 5.935 9.860 4.397 9.880 C 3.169 9.896,2.844 9.911,2.780 9.956 C 2.700 10.012,2.128 10.626,1.730 11.084 C 1.536 11.307,1.520 11.341,1.520 11.527 C 1.520 11.702,1.537 11.745,1.656 11.864 C 1.774 11.982,1.818 12.000,1.991 12.000 C 2.237 12.000,2.261 11.982,2.819 11.365 L 3.258 10.880 4.589 10.880 L 5.920 10.880 5.920 12.580 L 5.920 14.280 4.490 14.280 C 3.657 14.280,3.000 14.297,2.916 14.321 C 2.802 14.352,2.651 14.492,2.216 14.967 C 1.556 15.685,1.521 15.735,1.520 15.932 C 1.520 16.140,1.610 16.297,1.774 16.375 C 2.086 16.522,2.211 16.452,2.819 15.790 L 3.287 15.280 4.603 15.280 L 5.920 15.280 5.921 15.910 C 5.924 16.983,6.010 17.631,6.243 18.332 C 6.307 18.526,6.360 18.692,6.360 18.701 C 6.360 18.710,5.566 18.723,4.595 18.729 L 2.830 18.740 2.468 19.120 C 2.270 19.329,1.975 19.651,1.814 19.835 C 1.533 20.155,1.520 20.178,1.520 20.369 C 1.520 20.542,1.538 20.586,1.656 20.704 C 1.775 20.823,1.818 20.840,1.995 20.840 C 2.238 20.840,2.282 20.806,2.860 20.164 L 3.260 19.720 5.083 19.720 L 6.907 19.720 7.053 19.933 C 7.954 21.241,9.469 22.173,11.100 22.423 C 11.807 22.532,12.829 22.481,13.512 22.302 C 14.882 21.945,16.175 21.053,16.947 19.933 L 17.093 19.720 18.917 19.721 L 20.740 19.722 21.100 20.124 C 21.689 20.782,21.762 20.840,22.003 20.840 C 22.183 20.840,22.225 20.823,22.344 20.704 C 22.462 20.586,22.480 20.542,22.480 20.369 C 22.480 20.178,22.467 20.155,22.186 19.835 C 22.025 19.651,21.730 19.329,21.532 19.120 L 21.170 18.740 19.405 18.729 C 18.434 18.723,17.640 18.710,17.640 18.701 C 17.640 18.692,17.693 18.526,17.757 18.332 C 17.990 17.631,18.076 16.983,18.079 15.910 L 18.080 15.280 19.397 15.280 L 20.713 15.280 21.181 15.790 C 21.789 16.452,21.914 16.522,22.226 16.375 C 22.390 16.297,22.480 16.140,22.480 15.932 C 22.479 15.735,22.444 15.685,21.784 14.967 C 21.349 14.492,21.198 14.352,21.084 14.321 C 21.000 14.297,20.343 14.280,19.510 14.280 L 18.080 14.280 18.080 12.580 L 18.080 10.880 19.411 10.880 L 20.742 10.880 21.181 11.365 C 21.739 11.982,21.763 12.000,22.009 12.000 C 22.182 12.000,22.226 11.982,22.344 11.864 C 22.463 11.745,22.480 11.702,22.480 11.527 C 22.480 11.341,22.464 11.307,22.270 11.084 C 21.791 10.533,21.293 10.007,21.194 9.946 C 21.100 9.888,20.906 9.880,19.568 9.880 L 18.049 9.880 18.021 9.615 C 17.878 8.277,17.148 6.858,16.115 5.907 L 15.794 5.612 16.173 5.288 C 17.056 4.533,17.674 3.510,17.903 2.427 C 17.999 1.972,17.983 1.815,17.824 1.656 C 17.705 1.537,17.662 1.520,17.487 1.520 C 17.315 1.520,17.266 1.539,17.149 1.650 C 17.035 1.758,17.003 1.828,16.961 2.060 C 16.804 2.913,16.462 3.568,15.827 4.228 C 15.503 4.566,14.974 5.000,14.886 5.000 C 14.859 5.000,14.735 4.948,14.609 4.885 C 14.305 4.732,13.616 4.500,13.229 4.422 C 12.356 4.245,11.273 4.274,10.412 4.497 C 10.124 4.572,9.523 4.796,9.281 4.920 L 9.114 5.005 8.927 4.852 C 7.888 4.004,7.239 3.055,7.051 2.108 C 6.996 1.830,6.966 1.760,6.850 1.650 C 6.734 1.539,6.686 1.520,6.513 1.520 C 6.338 1.520,6.295 1.537,6.176 1.656 M12.561 5.320 C 13.602 5.444,14.526 5.848,15.300 6.517 C 16.155 7.255,16.709 8.190,16.985 9.360 C 17.049 9.632,17.057 9.986,17.071 13.160 C 17.086 16.726,17.076 17.046,16.934 17.620 C 16.410 19.734,14.572 21.307,12.430 21.474 C 10.906 21.593,9.478 21.071,8.430 20.013 C 8.007 19.585,7.749 19.239,7.506 18.768 C 7.216 18.205,7.071 17.762,6.976 17.140 C 6.905 16.675,6.895 10.168,6.964 9.636 C 7.186 7.926,8.277 6.462,9.860 5.749 C 10.698 5.372,11.681 5.216,12.561 5.320 M9.484 9.983 C 9.417 10.040,9.341 10.155,9.316 10.239 C 9.277 10.369,9.281 10.415,9.345 10.544 C 9.386 10.627,9.471 10.732,9.533 10.777 C 9.644 10.859,9.684 10.860,12.000 10.860 C 14.316 10.860,14.356 10.859,14.467 10.777 C 14.529 10.732,14.614 10.627,14.655 10.544 C 14.719 10.415,14.723 10.369,14.684 10.239 C 14.659 10.155,14.583 10.040,14.516 9.983 L 14.394 9.880 12.000 9.880 L 9.606 9.880 9.484 9.983 M9.528 13.801 C 9.363 13.902,9.268 14.114,9.303 14.304 C 9.336 14.477,9.514 14.661,9.683 14.695 C 9.849 14.728,14.151 14.728,14.317 14.695 C 14.479 14.662,14.662 14.481,14.694 14.322 C 14.731 14.137,14.640 13.917,14.484 13.811 L 14.348 13.720 12.004 13.720 C 9.724 13.720,9.656 13.722,9.528 13.801 M10.657 17.598 C 10.611 17.617,10.525 17.690,10.467 17.759 C 10.330 17.921,10.320 18.178,10.444 18.335 C 10.616 18.555,10.651 18.560,12.000 18.560 C 13.349 18.560,13.384 18.555,13.556 18.335 C 13.612 18.264,13.640 18.171,13.640 18.054 C 13.640 17.910,13.615 17.852,13.503 17.729 L 13.366 17.580 12.053 17.572 C 11.331 17.567,10.703 17.579,10.657 17.598 " fill="black" stroke="none" fill-rule="evenodd"></path></svg>