<svg viewBox="0 0 24 24" xmlns="http://www.w3.org/2000/svg" id="icon"><path d="M6.176 1.656 C 6.058 1.774,6.040 1.818,6.040 1.990 C 6.040 2.412,6.316 3.222,6.645 3.765 C 6.994 4.342,7.358 4.776,7.959 5.333 L 8.202 5.557 7.708 6.049 C 6.733 7.018,6.195 8.075,6.002 9.400 L 5.935 9.860 4.397 9.880 C 3.169 9.896,2.844 9.911,2.780 9.956 C 2.700 10.012,2.128 10.626,1.730 11.084 C 1.536 11.307,1.520 11.341,1.520 11.527 C 1.520 11.702,1.537 11.745,1.656 11.864 C 1.774 11.982,1.818 12.000,1.991 12.000 C 2.237 12.000,2.261 11.982,2.819 11.365 L 3.258 10.880 4.589 10.880 L 5.920 10.880 5.920 12.580 L 5.920 14.280 4.490 14.280 C 3.657 14.280,3.000 14.297,2.916 14.321 C 2.802 14.352,2.651 14.492,2.216 14.967 C 1.556 15.685,1.521 15.735,1.520 15.932 C 1.520 16.140,1.610 16.297,1.774 16.375 C 2.086 16.522,2.211 16.452,2.819 15.790 L 3.287 15.280 4.603 15.280 L 5.920 15.280 5.921 15.910 C 5.924 16.983,6.010 17.631,6.243 18.332 C 6.307 18.526,6.360 18.692,6.360 18.701 C 6.360 18.710,5.566 18.723,4.595 18.729 L 2.830 18.740 2.468 19.120 C 2.270 19.329,1.975 19.651,1.814 19.835 C 1.533 20.155,1.520 20.178,1.520 20.369 C 1.520 20.542,1.538 20.586,1.656 20.704 C 1.775 20.823,1.818 20.840,1.995 20.840 C 2.238 20.840,2.282 20.806,2.860 20.164 L 3.260 19.720 5.083 19.720 L 6.907 19.720 7.053 19.933 C 7.954 21.241,9.469 22.173,11.100 22.423 C 11.807 22.532,12.829 22.481,13.512 22.302 C 14.882 21.945,16.175 21.053,16.947 19.933 L 17.093 19.720 18.917 19.721 L 20.740 19.722 21.100 20.124 C 21.689 20.782,21.762 20.840,22.003 20.840 C 22.183 20.840,22.225 20.823,22.344 20.704 C 22.462 20.586,22.480 20.542,22.480 20.369 C 22.480 20.178,22.467 20.155,22.186 19.835 C 22.025 19.651,21.730 19.329,21.532 19.120 L 21.170 18.740 19.405 18.729 C 18.434 18.723,17.640 18.710,17.640 18.701 C 17.640 18.692,17.693 18.526,17.757 18.332 C 17.990 17.631,18.076 16.983,18.079 15.910 L 18.080 15.280 19.397 15.280 L 20.713 15.280 21.181 15.790 C 21.789 16.452,21.914 16.522,22.226 16.375 C 22.390 16.297,22.480 16.140,22.480 15.932 C 22.479 15.735,22.444 15.685,21.784 14.967 C 21.349 14.492,21.198 14.352,21.084 14.321 C 21.000 14.297,20.343 14.280,19.510 14.280 L 18.080 14.280 18.080 12.580 L 18.080 10.880 19.411 10.880 L 20.742 10.880 21.181 11.365 C 21.739 11.982,21.763 12.000,22.009 12.000 C 22.182 12.000,22.226 11.982,22.344 11.864 C 22.463 11.745,22.480 11.702,22.480 11.527 C 22.480 11.341,22.464 11.307,22.270 11.084 C 21.791 10.533,21.293 10.007,21.194 9.946 C 21.100 9.888,20.906 9.880,19.568 9.880 L 18.049 9.880 18.021 9.615 C 17.878 8.277,17.148 6.858,16.115 5.907 L 15.794 5.612 16.173 5.288 C 17.056 4.533,17.674 3.510,17.903 2.427 C 17.999 1.972,17.983 1.815,17.824 1.656 C 17.705 1.537,17.662 1.520,17.487 1.520 C 17.315 1.520,17.266 1.539,17.149 1.650 C 17.035 1.758,17.003 1.828,16.961 2.060 C 16.804 2.913,16.462 3.568,15.827 4.228 C 15.503 4.566,14.974 5.000,14.886 5.000 C 14.859 5.000,14.735 4.948,14.609 4.885 C 14.305 4.732,13.616 4.500,13.229 4.422 C 12.356 4.245,11.273 4.274,10.412 4.497 C 10.124 4.572,9.523 4.796,9.281 4.920 L 9.114 5.005 8.927 4.852 C 7.888 4.004,7.239 3.055,7.051 2.108 C 6.996 1.830,6.966 1.760,6.850 1.650 C 6.734 1.539,6.686 1.520,6.513 1.520 C 6.338 1.520,6.295 1.537,6.176 1.656 M14.678 9.012 C 15.078 9.169,15.459 9.566,15.569 9.938 C 15.595 10.027,15.617 10.235,15.617 10.400 C 15.617 10.639,15.595 10.746,15.512 10.927 C 15.307 11.371,14.930 11.669,14.460 11.759 C 14.291 11.791,13.517 11.801,11.840 11.793 L 9.460 11.780 9.220 11.668 C 8.907 11.522,8.634 11.250,8.493 10.944 C 8.397 10.737,8.380 10.648,8.380 10.359 C 8.380 10.054,8.394 9.990,8.511 9.751 C 8.721 9.325,9.120 9.028,9.572 8.959 C 9.686 8.942,10.842 8.931,12.140 8.935 C 14.279 8.942,14.517 8.949,14.678 9.012 M14.809 12.927 C 15.059 13.045,15.363 13.330,15.477 13.556 C 15.843 14.276,15.527 15.159,14.780 15.508 L 14.540 15.620 12.084 15.631 C 9.200 15.644,9.268 15.652,8.826 15.243 C 8.042 14.517,8.293 13.277,9.305 12.879 C 9.491 12.806,9.621 12.803,12.040 12.811 L 14.580 12.820 14.809 12.927 M13.570 16.699 C 13.965 16.818,14.337 17.168,14.483 17.557 C 14.598 17.862,14.581 18.376,14.448 18.646 C 14.301 18.945,14.064 19.183,13.769 19.329 L 13.502 19.460 12.000 19.460 L 10.498 19.460 10.232 19.329 C 9.904 19.167,9.637 18.883,9.520 18.571 C 9.407 18.268,9.406 17.853,9.519 17.552 C 9.661 17.172,10.036 16.817,10.420 16.696 C 10.666 16.618,13.314 16.621,13.570 16.699 " fill="black" stroke="none" fill-rule="evenodd"></path></svg>